<svg width="800" height="480" viewBox="0 0 800 480" fill="none" xmlns="http://www.w3.org/2000/svg">
  <rect width="800" height="480" rx="28" fill="url(#bg)"/>
  <rect x="52" y="58" width="696" height="364" rx="22" fill="white" fill-opacity="0.84"/>

  <rect x="84" y="98" width="190" height="24" rx="12" fill="#DCEBFF"/>
  <rect x="84" y="132" width="240" height="12" rx="6" fill="#C7DEFF"/>

  <rect x="84" y="170" width="180" height="220" rx="16" fill="#F1F7FF"/>
  <rect x="102" y="190" width="144" height="52" rx="10" fill="#E2EEFF"/>
  <rect x="112" y="200" width="16" height="8" rx="4" fill="#16A34A"/>
  <rect x="112" y="214" width="16" height="8" rx="4" fill="#16A34A"/>
  <rect x="112" y="228" width="16" height="8" rx="4" fill="#16A34A"/>
  <rect x="134" y="202" width="86" height="8" rx="4" fill="#7BA5E8"/>
  <rect x="134" y="216" width="74" height="8" rx="4" fill="#7BA5E8"/>
  <rect x="134" y="230" width="92" height="8" rx="4" fill="#7BA5E8"/>
  <rect x="102" y="252" width="144" height="52" rx="10" fill="#E2EEFF"/>
  <rect x="112" y="262" width="16" height="8" rx="4" fill="#F59E0B"/>
  <rect x="112" y="276" width="16" height="8" rx="4" fill="#F59E0B"/>
  <rect x="112" y="290" width="16" height="8" rx="4" fill="#F59E0B"/>
  <rect x="134" y="264" width="86" height="8" rx="4" fill="#7BA5E8"/>
  <rect x="134" y="278" width="74" height="8" rx="4" fill="#7BA5E8"/>
  <rect x="134" y="292" width="92" height="8" rx="4" fill="#7BA5E8"/>
  <rect x="102" y="314" width="144" height="52" rx="10" fill="#E2EEFF"/>
  <rect x="112" y="324" width="16" height="8" rx="4" fill="#EF4444"/>
  <rect x="112" y="338" width="16" height="8" rx="4" fill="#EF4444"/>
  <rect x="112" y="352" width="16" height="8" rx="4" fill="#EF4444"/>
  <rect x="134" y="326" width="86" height="8" rx="4" fill="#7BA5E8"/>
  <rect x="134" y="340" width="74" height="8" rx="4" fill="#7BA5E8"/>
  <rect x="134" y="354" width="92" height="8" rx="4" fill="#7BA5E8"/>

  <rect x="286" y="170" width="430" height="220" rx="16" fill="#F6FBFF"/>
  <rect x="308" y="190" width="180" height="86" rx="12" fill="#E9F3FF"/>
  <polyline points="322,252 352,226 376,236 410,210 438,218 472,196" stroke="#1D4ED8" stroke-width="4" fill="none" stroke-linecap="round" stroke-linejoin="round"/>
  <rect x="502" y="190" width="190" height="86" rx="12" fill="#ECFEFF"/>
  <circle cx="547" cy="233" r="26" fill="#99F6E4"/>
  <path d="M547 207 A26 26 0 0 1 573 233 L547 233 Z" fill="#0EA5A4"/>
  <rect x="582" y="212" width="86" height="8" rx="4" fill="#67E8F9"/>
  <rect x="582" y="226" width="70" height="8" rx="4" fill="#67E8F9"/>
  <rect x="582" y="240" width="62" height="8" rx="4" fill="#67E8F9"/>
  <rect x="308" y="292" width="384" height="78" rx="12" fill="#EFF6FF"/>
  <rect x="324" y="312" width="350" height="10" rx="5" fill="#C7DEFF"/>
  <rect x="324" y="339" width="116" height="14" rx="7" fill="#2563EB"/>

  <rect x="506" y="146" width="180" height="36" rx="10" fill="#FEF3C7"/>
  <circle cx="526" cy="164" r="8" fill="#F59E0B"/>
  <rect x="540" y="160" width="130" height="8" rx="4" fill="#F59E0B"/>

  <defs>
    <linearGradient id="bg" x1="42" y1="20" x2="760" y2="456" gradientUnits="userSpaceOnUse">
      <stop stop-color="#E7F0FF"/>
      <stop offset="1" stop-color="#E7FCFF"/>
    </linearGradient>
  </defs>
</svg>
