<svg width="800" height="480" viewBox="0 0 800 480" fill="none" xmlns="http://www.w3.org/2000/svg">
  <rect width="800" height="480" rx="28" fill="url(#bg)"/>
  <rect x="54" y="58" width="692" height="364" rx="22" fill="white" fill-opacity="0.84"/>

  <rect x="86" y="96" width="196" height="24" rx="12" fill="#ECE7FF"/>
  <rect x="86" y="130" width="270" height="12" rx="6" fill="#D8CCFF"/>

  <rect x="86" y="170" width="246" height="220" rx="16" fill="#F6F3FF"/>
  <rect x="108" y="194" width="38" height="168" rx="7" fill="#8B5CF6"/>
  <rect x="150" y="184" width="42" height="178" rx="7" fill="#A78BFA"/>
  <rect x="196" y="200" width="36" height="162" rx="7" fill="#C4B5FD"/>
  <rect x="236" y="190" width="32" height="172" rx="7" fill="#DDD6FE"/>
  <rect x="272" y="210" width="34" height="152" rx="7" fill="#E9E2FF"/>
  <rect x="102" y="330" width="210" height="18" rx="9" fill="#DDD6FE"/>

  <rect x="348" y="170" width="366" height="102" rx="16" fill="#EFF6FF"/>
  <rect x="370" y="194" width="132" height="14" rx="7" fill="#93C5FD"/>
  <rect x="370" y="216" width="212" height="12" rx="6" fill="#BFDBFE"/>
  <circle cx="640" cy="221" r="24" fill="#DBEAFE"/>
  <circle cx="640" cy="221" r="10" fill="#2563EB"/>
  <path d="M648 229 L658 239" stroke="#2563EB" stroke-width="5" stroke-linecap="round"/>

  <rect x="348" y="288" width="366" height="102" rx="16" fill="#F8FAFF"/>
  <circle cx="420" cy="340" r="10" fill="#6366F1"/>
  <circle cx="500" cy="320" r="10" fill="#8B5CF6"/>
  <circle cx="576" cy="346" r="10" fill="#A78BFA"/>
  <circle cx="654" cy="314" r="10" fill="#C4B5FD"/>
  <path d="M428 338L492 322" stroke="#818CF8" stroke-width="4" stroke-linecap="round"/>
  <path d="M508 323L568 343" stroke="#A78BFA" stroke-width="4" stroke-linecap="round"/>
  <path d="M584 342L646 317" stroke="#C4B5FD" stroke-width="4" stroke-linecap="round"/>
  <rect x="368" y="362" width="180" height="10" rx="5" fill="#D8CCFF"/>

  <defs>
    <linearGradient id="bg" x1="38" y1="24" x2="762" y2="452" gradientUnits="userSpaceOnUse">
      <stop stop-color="#F3EEFF"/>
      <stop offset="1" stop-color="#EAF9FF"/>
    </linearGradient>
  </defs>
</svg>
