<svg width="800" height="480" viewBox="0 0 800 480" fill="none" xmlns="http://www.w3.org/2000/svg">
  <rect width="800" height="480" rx="28" fill="url(#bg)"/>
  <rect x="52" y="58" width="696" height="364" rx="22" fill="white" fill-opacity="0.84"/>

  <rect x="84" y="96" width="210" height="24" rx="12" fill="#CFFAFE"/>
  <rect x="84" y="130" width="300" height="12" rx="6" fill="#A5F3FC"/>

  <rect x="84" y="170" width="446" height="236" rx="16" fill="#ECFEFF"/>
  <rect x="106" y="192" width="402" height="164" rx="12" fill="#E0F2FE"/>
  <circle cx="307" cy="274" r="46" fill="#22D3EE"/>
  <polygon points="292,248 292,300 336,274" fill="#0F766E"/>
  <rect x="124" y="368" width="366" height="10" rx="5" fill="#67E8F9"/>
  <circle cx="200" cy="373" r="11" fill="#0891B2"/>
  <circle cx="306" cy="373" r="11" fill="#06B6D4"/>
  <circle cx="410" cy="373" r="11" fill="#22D3EE"/>

  <rect x="548" y="170" width="168" height="112" rx="14" fill="#F0FDFA"/>
  <circle cx="582" cy="208" r="16" fill="#34D399"/>
  <rect x="606" y="196" width="86" height="10" rx="5" fill="#6EE7B7"/>
  <rect x="606" y="214" width="70" height="10" rx="5" fill="#A7F3D0"/>
  <rect x="606" y="232" width="54" height="10" rx="5" fill="#BBF7D0"/>
  <path d="M566 252L576 262L594 244" stroke="#059669" stroke-width="5" stroke-linecap="round" stroke-linejoin="round"/>

  <rect x="548" y="294" width="168" height="112" rx="14" fill="#EFF6FF"/>
  <circle cx="580" cy="332" r="18" fill="#93C5FD"/>
  <circle cx="632" cy="332" r="18" fill="#60A5FA"/>
  <circle cx="606" cy="370" r="18" fill="#3B82F6"/>
  <path d="M596 332L616 332" stroke="#1D4ED8" stroke-width="3" stroke-linecap="round"/>
  <path d="M590 360L600 350L614 350" stroke="#1D4ED8" stroke-width="3" stroke-linecap="round" stroke-linejoin="round"/>

  <rect x="274" y="156" width="68" height="22" rx="10" fill="#FEF3C7"/>
  <circle cx="288" cy="167" r="5" fill="#F59E0B"/>
  <rect x="298" y="164" width="34" height="6" rx="3" fill="#F59E0B"/>

  <defs>
    <linearGradient id="bg" x1="36" y1="24" x2="764" y2="456" gradientUnits="userSpaceOnUse">
      <stop stop-color="#E8FCFF"/>
      <stop offset="1" stop-color="#EAF4FF"/>
    </linearGradient>
  </defs>
</svg>
