<svg width="256" height="256" viewBox="0 0 256 256" fill="none" xmlns="http://www.w3.org/2000/svg">
  <defs>
    <linearGradient id="bg" x1="24" y1="20" x2="232" y2="236" gradientUnits="userSpaceOnUse">
      <stop stop-color="#0EA5E9"/>
      <stop offset="1" stop-color="#2563EB"/>
    </linearGradient>
    <linearGradient id="ring" x1="62" y1="64" x2="194" y2="192" gradientUnits="userSpaceOnUse">
      <stop stop-color="#FFFFFF"/>
      <stop offset="1" stop-color="#BAE6FD"/>
    </linearGradient>
  </defs>

  <rect x="8" y="8" width="240" height="240" rx="56" fill="url(#bg)"/>
  <circle cx="128" cy="128" r="76" stroke="url(#ring)" stroke-width="16"/>
  <circle cx="128" cy="128" r="14" fill="#E0F2FE"/>

  <path d="M128 48C146 76 146 102 128 128C110 102 110 76 128 48Z" fill="#E0F2FE"/>
  <path d="M208 128C180 146 154 146 128 128C154 110 180 110 208 128Z" fill="#E0F2FE"/>
  <path d="M128 208C110 180 110 154 128 128C146 154 146 180 128 208Z" fill="#E0F2FE"/>
  <path d="M48 128C76 110 102 110 128 128C102 146 76 146 48 128Z" fill="#E0F2FE"/>

  <circle cx="186" cy="70" r="8" fill="#67E8F9"/>
  <circle cx="74" cy="70" r="6" fill="#67E8F9"/>
  <circle cx="70" cy="186" r="8" fill="#67E8F9"/>
  <circle cx="186" cy="186" r="6" fill="#67E8F9"/>
</svg>
